 <svg  version="1.0" xmlns="http://www.w3.org/2000/svg"  width="300.000000pt" height="300.000000pt" viewBox="0 0 300.000000 300.000000"  preserveAspectRatio="xMidYMid meet">  <g transform="translate(0.000000,300.000000) scale(0.100000,-0.100000)" fill="#3406b2" stroke="none"> <path d="M1305 2984 c-90 -14 -197 -39 -278 -66 -523 -174 -914 -632 -1002 -1173 -15 -91 -20 -203 -9 -192 3 3 17 70 30 149 66 403 251 722 557 959 227 176 441 259 780 303 110 15 127 14 261 -4 319 -42 529 -127 761 -308 197 -153 331 -325 435 -559 61 -136 95 -266 120 -450 20 -149 19 -187 -11 -373 -58 -357 -259 -700 -539 -917 -166 -129 -398 -244 -560 -277 -14 -3 -65 -14 -114 -26 -50 -11 -106 -20 -125 -21 -20 0 -45 -4 -56 -9 -34 -15 91 -11 190 5 549 89 1004 481 1178 1016 53 161 62 229 62 459 0 287 -27 411 -140 647 -76 159 -162 280 -290 408 -163 164 -344 278 -560 355 -169 59 -241 71 -460 75 -110 2 -213 1 -230 -1z"/> <path d="M560 1891 c-164 -50 -248 -228 -179 -380 27 -60 34 -221 12 -295 -17 -58 -8 -90 33 -108 21 -10 31 -9 60 7 27 14 40 16 53 8 11 -7 160 -11 459 -11 429 0 442 0 442 19 0 10 5 19 11 19 6 0 9 -9 6 -20 -3 -11 -1 -18 4 -14 15 9 10 45 -11 79 l-20 32 -281 2 c-201 1 -285 -1 -295 -10 -8 -7 -21 -8 -31 -3 -29 13 -255 14 -281 2 -33 -17 -45 1 -49 69 -4 81 1 87 66 70 135 -35 269 31 327 161 60 133 2 282 -138 351 -63 32 -130 39 -188 22z m178 -45 c156 -80 191 -277 70 -398 -53 -52 -102 -72 -179 -73 -56 0 -73 4 -115 31 l-49 30 3 -110 c3 -77 8 -116 18 -127 21 -23 17 -47 -11 -65 -23 -15 -27 -15 -50 0 -28 18 -32 47 -10 66 12 10 15 39 15 142 0 110 -3 135 -21 169 -83 164 38 359 223 359 42 0 72 -7 106 -24z m-130 -654 c3 -9 -3 -11 -22 -6 -22 5 -26 3 -26 -16 0 -19 4 -21 26 -16 19 5 25 3 22 -6 -11 -32 -68 -14 -68 21 0 36 57 56 68 23z m65 -19 l15 -38 1 38 c1 35 3 38 27 35 35 -4 53 -31 38 -55 -13 -22 -70 -29 -90 -12 -11 9 -18 9 -26 1 -16 -16 -28 -15 -23 1 29 81 35 84 58 30z m145 0 c10 -33 6 -66 -5 -35 -3 6 -11 12 -18 12 -7 0 -15 -6 -18 -12 -2 -7 -7 -11 -10 -7 -10 8 15 79 28 79 6 0 17 -17 23 -37z m90 14 c3 -16 -27 -57 -43 -57 -3 0 -5 18 -5 41 0 36 2 40 22 37 13 -2 24 -11 26 -21z m68 -19 c1 -41 -9 -49 -25 -20 -10 16 -10 16 -11 0 0 -10 -4 -18 -10 -18 -5 0 -10 18 -10 41 0 38 1 40 28 37 24 -3 27 -7 28 -40z m72 33 c8 -5 12 -21 10 -37 -3 -25 -7 -29 -33 -29 -24 0 -31 5 -33 23 -7 46 20 66 56 43z m79 -7 c5 -14 -35 -64 -52 -64 -3 0 -5 18 -5 40 0 36 2 40 25 40 14 0 28 -7 32 -16z m28 -29 c1 -25 -2 -35 -13 -35 -9 0 -12 6 -8 16 3 9 6 27 6 41 0 38 12 20 15 -22z m55 35 c0 -5 -6 -10 -12 -10 -9 0 -8 -4 2 -10 13 -9 13 -11 0 -20 -13 -8 -12 -10 3 -10 12 0 17 8 17 31 0 27 3 30 26 27 35 -4 53 -31 38 -55 -8 -13 -26 -19 -63 -20 l-51 -2 0 40 c0 32 3 39 20 39 11 0 20 -4 20 -10z m139 -26 c13 -36 7 -60 -9 -34 -7 11 -11 12 -24 0 -9 -7 -19 -11 -21 -8 -7 7 23 78 33 78 4 0 14 -16 21 -36z m81 21 c20 -24 -3 -65 -35 -65 -23 0 -25 4 -25 40 0 35 3 40 24 40 13 0 29 -7 36 -15z"/> <path d="M545 1825 c-16 -7 -40 -22 -52 -32 -29 -25 -73 -92 -73 -112 0 -9 9 2 19 24 23 48 27 42 6 -8 -23 -54 -19 -115 10 -166 30 -52 27 -67 -4 -19 -11 18 -21 27 -21 20 0 -17 95 -112 112 -112 7 0 -2 10 -20 21 -49 32 -32 33 22 3 39 -22 56 -26 102 -22 170 14 249 221 130 337 -19 19 -33 38 -30 42 2 4 -4 13 -15 18 -30 17 -39 12 -11 -5 17 -10 18 -13 5 -9 -65 23 -99 25 -147 11 -54 -15 -57 -8 -5 11 18 6 25 12 17 12 -8 0 -28 -6 -45 -14z m35 -35 c0 -5 -4 -10 -10 -10 -18 0 -77 -60 -90 -91 -8 -19 -16 -27 -22 -21 -14 14 16 65 59 101 38 31 63 40 63 21z m158 -26 c48 -37 75 -96 68 -153 -2 -25 -5 -47 -5 -48 -1 -2 -5 -3 -9 -3 -5 0 -10 28 -11 62 -3 72 -11 92 -49 113 -15 8 -40 26 -57 41 l-30 26 30 -7 c17 -4 45 -18 63 -31z m-37 -34 l59 -41 0 -94 0 -95 -35 0 c-30 0 -34 -3 -32 -21 3 -27 -40 -44 -89 -35 -35 7 -47 32 -19 42 22 9 18 30 -10 48 -22 14 -25 24 -25 71 0 55 8 70 56 102 22 14 26 13 59 -7 44 -27 55 -47 55 -99 0 -31 -6 -46 -26 -64 -15 -14 -24 -31 -21 -38 4 -10 6 -9 6 4 1 12 9 17 31 17 l30 0 0 79 0 79 -54 37 -54 37 -51 -34 -51 -33 0 -82 0 -83 31 0 c17 0 29 -5 27 -11 -2 -6 -7 -10 -11 -10 -4 1 -20 1 -37 1 l-30 0 0 98 0 97 58 37 c31 21 61 38 65 38 4 0 35 -18 68 -40z m-220 -127 c4 -52 -11 -61 -23 -15 -6 23 -5 38 3 48 15 19 17 17 20 -33z"/> <path d="M793 1757 c21 -27 37 -53 37 -59 0 -6 3 -9 6 -5 8 8 -29 68 -57 93 -12 10 -6 -3 14 -29z"/> <path d="M791 1489 c-19 -23 -53 -50 -75 -60 -23 -10 -35 -19 -28 -19 25 0 69 29 105 69 33 36 43 51 35 51 -2 0 -18 -19 -37 -41z"/> <path d="M430 1185 c-15 -18 -5 -35 20 -35 10 0 22 5 25 10 7 11 -12 40 -25 40 -4 0 -13 -7 -20 -15z"/> <path d="M1005 1180 c-8 -14 3 -30 21 -30 8 0 14 9 14 20 0 21 -24 28 -35 10z"/> <path d="M1240 1171 c0 -12 6 -21 16 -21 9 0 14 7 12 17 -5 25 -28 28 -28 4z"/> <path d="M949 1754 c-9 -11 -15 -53 -17 -123 -4 -94 -2 -109 15 -130 17 -21 29 -24 81 -24 37 0 69 5 83 14 20 14 26 13 61 -4 45 -23 93 -17 129 14 l24 21 5 -50 c9 -87 59 -110 92 -42 12 24 29 39 55 48 20 7 47 21 58 32 26 25 33 25 54 2 25 -28 76 -42 134 -35 77 9 89 23 82 101 -8 83 -27 120 -73 139 -46 19 -94 11 -139 -23 -21 -16 -38 -23 -42 -17 -13 21 -77 53 -106 53 -16 0 -41 -7 -55 -15 -47 -27 -51 -27 -69 -11 -42 38 -81 4 -81 -72 0 -40 -4 -52 -15 -52 -11 0 -15 12 -15 48 0 78 -44 117 -83 74 -12 -13 -17 -37 -17 -76 l0 -57 -37 3 -38 3 -5 81 c-5 84 -19 114 -50 114 -10 0 -24 -7 -31 -16z m51 -109 l0 -105 56 0 c47 0 55 -3 52 -17 -3 -15 -15 -18 -73 -18 l-70 0 -3 109 c-3 120 0 136 23 136 12 0 15 -17 15 -105z m178 -15 c3 -71 13 -90 46 -90 36 0 46 20 46 92 0 61 2 68 20 68 18 0 20 -7 20 -75 0 -67 -3 -79 -25 -100 -16 -17 -35 -25 -60 -25 -25 0 -44 8 -60 25 -22 21 -25 33 -25 100 0 67 2 76 18 73 14 -3 18 -16 20 -68z m331 49 c51 -47 50 -111 -2 -155 -24 -20 -39 -25 -69 -22 l-38 4 0 -48 c0 -41 -3 -48 -20 -48 -18 0 -20 7 -20 64 0 34 -5 77 -11 95 -14 40 -5 77 28 107 34 32 99 33 132 3z m242 -8 c26 -27 29 -36 29 -98 l0 -69 -71 -2 c-66 -2 -73 0 -100 27 -41 41 -41 101 0 142 23 23 38 29 71 29 33 0 48 -6 71 -29z"/> <path d="M1395 1636 c-22 -33 -13 -73 20 -88 33 -15 69 -3 85 28 21 39 -3 78 -52 82 -30 3 -40 -1 -53 -22z m75 -35 c0 -10 -9 -21 -20 -24 -22 -6 -27 12 -8 31 17 17 28 15 28 -7z"/> <path d="M1637 1642 c-36 -40 -9 -102 45 -102 49 0 78 69 42 104 -21 22 -67 20 -87 -2z m67 -29 c4 -9 0 -23 -9 -32 -13 -14 -17 -14 -32 1 -13 14 -14 20 -3 32 16 21 36 20 44 -1z"/> <path d="M1830 1630 c0 -73 4 -120 10 -120 6 0 10 20 10 45 l0 45 48 0 c38 0 53 5 70 23 29 31 28 72 -3 102 -20 21 -34 25 -80 25 l-55 0 0 -120z m118 84 c49 -34 15 -94 -55 -94 l-43 0 0 55 0 55 38 0 c21 0 48 -7 60 -16z"/> <path d="M2115 1692 c-16 -2 -34 -8 -39 -13 -13 -12 -29 -12 -21 1 3 6 1 10 -4 10 -7 0 -11 -33 -11 -90 0 -53 4 -90 10 -90 6 0 10 27 10 61 0 82 11 99 60 99 22 0 40 4 40 9 0 14 -11 17 -45 13z"/> <path d="M2219 1672 c-55 -49 -36 -138 34 -161 98 -33 171 87 98 160 -40 39 -89 40 -132 1z m118 -14 c62 -58 -11 -162 -86 -123 -16 8 -31 22 -35 30 -31 82 59 152 121 93z"/> <path d="M2455 1676 c-31 -31 -41 -71 -26 -111 6 -17 11 -59 11 -93 0 -35 4 -62 10 -62 6 0 10 25 10 55 0 30 2 55 4 55 3 0 16 -4 31 -10 60 -23 136 49 119 115 -17 67 -112 98 -159 51z m112 -16 c45 -41 36 -101 -18 -124 -40 -17 -64 -11 -89 22 -27 33 -25 68 5 97 29 30 73 32 102 5z"/> <path d="M2475 1645 c-26 -25 -32 -45 -15 -45 6 0 10 9 10 20 0 14 11 26 33 35 19 9 25 14 14 15 -10 0 -29 -11 -42 -25z"/> <path d="M14 1365 c12 -231 101 -486 248 -706 75 -112 260 -303 368 -378 160 -112 333 -190 523 -236 108 -27 314 -45 287 -26 -8 6 -33 11 -55 11 -22 0 -56 4 -75 10 -19 5 -51 12 -70 15 -314 53 -674 264 -875 515 -168 210 -273 446 -315 714 -27 168 -42 202 -36 81z"/> <path d="M1490 1181 c0 -32 22 -56 44 -48 15 6 27 65 14 73 -4 3 -8 -9 -8 -25 0 -21 -5 -31 -15 -31 -10 0 -15 10 -15 30 0 17 -4 30 -10 30 -5 0 -10 -13 -10 -29z"/> <path d="M1570 1170 c0 -23 5 -40 11 -40 6 0 9 9 6 20 -7 26 0 25 24 -2 l18 -23 1 43 c0 25 -4 41 -10 37 -5 -3 -7 -13 -4 -23 4 -12 0 -11 -14 6 -28 30 -32 28 -32 -18z"/> <path d="M1654 1174 c-8 -20 -12 -39 -8 -43 4 -3 9 0 11 7 3 6 11 12 18 12 7 0 15 -6 18 -12 2 -7 7 -10 11 -7 8 7 -19 79 -29 79 -3 0 -13 -16 -21 -36z"/> <path d="M1752 1198 c-19 -19 -14 -56 8 -63 24 -8 50 10 50 34 0 19 -19 41 -35 41 -6 0 -16 -5 -23 -12z m46 -25 c5 -17 -26 -29 -40 -15 -6 6 -7 15 -3 22 9 14 37 9 43 -7z"/> <path d="M1829 1208 c-5 -16 -2 -71 3 -75 5 -2 8 3 8 11 0 9 6 16 14 16 22 0 30 19 16 35 -10 13 -38 21 -41 13z"/> <path d="M1902 1201 c-8 -4 -12 -21 -10 -37 2 -23 8 -29 27 -29 31 0 50 28 35 53 -13 20 -34 25 -52 13z m38 -31 c0 -11 -6 -20 -14 -20 -18 0 -29 16 -21 30 11 18 35 11 35 -10z"/> <path d="M1970 1170 c0 -22 5 -40 10 -40 6 0 10 8 10 18 1 16 1 16 11 0 15 -26 24 -22 24 10 0 35 -12 52 -36 52 -16 0 -19 -7 -19 -40z"/> <path d="M2030 1200 c0 -5 5 -10 10 -10 6 0 10 -13 10 -30 0 -16 5 -30 10 -30 6 0 10 14 10 30 0 17 5 30 10 30 6 0 10 5 10 10 0 6 -13 10 -30 10 -16 0 -30 -4 -30 -10z"/> <path d="M2102 1177 c-2 -44 22 -62 44 -32 16 22 19 65 4 65 -5 0 -10 -13 -10 -30 0 -42 -27 -40 -33 3 -4 31 -4 31 -5 -6z"/> <path d="M2170 1170 c0 -22 5 -40 10 -40 6 0 10 9 10 21 0 21 0 21 20 -2 l19 -24 0 45 c-1 35 -3 40 -8 20 l-7 -25 -15 23 c-20 32 -29 27 -29 -18z"/> <path d="M2280 1170 c0 -37 2 -41 21 -38 30 4 47 33 33 56 -6 9 -21 18 -33 20 -19 3 -21 -1 -21 -38z m45 0 c0 -8 -8 -16 -17 -18 -13 -2 -18 3 -18 18 0 15 5 20 18 18 9 -2 17 -10 17 -18z"/> <path d="M2361 1179 c-15 -43 -14 -54 4 -39 12 10 18 10 30 0 8 -7 15 -8 15 -3 0 19 -22 73 -30 73 -4 0 -13 -14 -19 -31z"/> <path d="M2427 1203 c-8 -16 0 -67 11 -71 19 -6 52 18 52 38 0 27 -52 53 -63 33z m43 -33 c0 -11 -7 -20 -15 -20 -8 0 -15 9 -15 20 0 11 7 20 15 20 8 0 15 -9 15 -20z"/> </g> </svg> 